<svg xmlns="http://www.w3.org/2000/svg" xmlns:xlink="http://www.w3.org/1999/xlink" width="90.045" height="33.615" viewBox="0 0 90.045 33.615">
  <defs>
    <linearGradient id="linear-gradient" x1="-0.047" y1="0.222" x2="1.084" y2="1.22" gradientUnits="objectBoundingBox">
      <stop offset="0" stop-color="#4990e4"/>
      <stop offset="1" stop-color="#b4d0e0"/>
    </linearGradient>
  </defs>
  <path id="Logo" d="M-36.945-17.01v-9.63h5.49a14.8,14.8,0,0,1,2.34.18,5.445,5.445,0,0,1,1.98.7A3.8,3.8,0,0,1-25.763-24.3a5.14,5.14,0,0,1,.517,2.475,5.14,5.14,0,0,1-.517,2.475,3.8,3.8,0,0,1-1.373,1.462,5.445,5.445,0,0,1-1.98.7,14.8,14.8,0,0,1-2.34.18ZM-44.01-32.13V0h7.065V-11.52h7.425a13.382,13.382,0,0,0,5.13-.877,9.6,9.6,0,0,0,3.442-2.317,8.873,8.873,0,0,0,1.935-3.307,12.22,12.22,0,0,0,.608-3.8,12.151,12.151,0,0,0-.608-3.825,8.9,8.9,0,0,0-1.935-3.285,9.6,9.6,0,0,0-3.442-2.318,13.382,13.382,0,0,0-5.13-.878Zm35.685,16.2a17.582,17.582,0,0,1,.473-4.095,10.845,10.845,0,0,1,1.507-3.533,7.647,7.647,0,0,1,2.7-2.475A8.248,8.248,0,0,1,.4-26.955a8.248,8.248,0,0,1,4.05.922,7.647,7.647,0,0,1,2.7,2.475,10.845,10.845,0,0,1,1.507,3.533,17.582,17.582,0,0,1,.473,4.095,16.356,16.356,0,0,1-.473,3.938A10.641,10.641,0,0,1,7.155-8.55,7.726,7.726,0,0,1,4.455-6.1,8.248,8.248,0,0,1,.4-5.175,8.248,8.248,0,0,1-3.645-6.1a7.726,7.726,0,0,1-2.7-2.453,10.641,10.641,0,0,1-1.507-3.443A16.356,16.356,0,0,1-8.325-15.93Zm-7.065,0a19.406,19.406,0,0,0,1.08,6.548,15.637,15.637,0,0,0,3.105,5.287A14.223,14.223,0,0,0-6.233-.562,16.475,16.475,0,0,0,.4.72,16.433,16.433,0,0,0,7.065-.562a14.272,14.272,0,0,0,4.95-3.532A15.638,15.638,0,0,0,15.12-9.382,19.406,19.406,0,0,0,16.2-15.93a20.076,20.076,0,0,0-1.08-6.682,16.052,16.052,0,0,0-3.105-5.378,14.248,14.248,0,0,0-4.95-3.6A16.187,16.187,0,0,0,.4-32.9,16.229,16.229,0,0,0-6.233-31.59a14.2,14.2,0,0,0-4.972,3.6,16.052,16.052,0,0,0-3.105,5.378A20.076,20.076,0,0,0-15.39-15.93Zm41.22,5.265H18.99a10.612,10.612,0,0,0,1.08,5.13A10.114,10.114,0,0,0,23.108-1.98,12.959,12.959,0,0,0,27.517.068,20.3,20.3,0,0,0,32.67.72a19.783,19.783,0,0,0,5.783-.765,12.228,12.228,0,0,0,4.185-2.138A8.9,8.9,0,0,0,45.18-5.445a9.818,9.818,0,0,0,.855-4.095,7.877,7.877,0,0,0-1.147-4.432,9.585,9.585,0,0,0-2.722-2.767,11.968,11.968,0,0,0-3.173-1.507q-1.6-.473-2.5-.653-3.015-.765-4.882-1.26a18.11,18.11,0,0,1-2.925-.99,3.213,3.213,0,0,1-1.417-1.08,2.888,2.888,0,0,1-.36-1.53,3.021,3.021,0,0,1,.45-1.71A3.908,3.908,0,0,1,28.507-26.6a4.574,4.574,0,0,1,1.553-.63,8.28,8.28,0,0,1,1.71-.18,12.05,12.05,0,0,1,2.407.225,5.8,5.8,0,0,1,1.958.765,3.975,3.975,0,0,1,1.372,1.485,5.681,5.681,0,0,1,.607,2.385h6.84A9.868,9.868,0,0,0,43.9-27.293,9.219,9.219,0,0,0,41.04-30.51a12.066,12.066,0,0,0-4.118-1.823,20.441,20.441,0,0,0-4.838-.562,16.463,16.463,0,0,0-4.32.585,12.061,12.061,0,0,0-3.87,1.8,9.582,9.582,0,0,0-2.767,3.037,8.413,8.413,0,0,0-1.058,4.3,7.856,7.856,0,0,0,.833,3.757,7.947,7.947,0,0,0,2.182,2.587,12.06,12.06,0,0,0,3.06,1.688,30.767,30.767,0,0,0,3.51,1.1q1.755.495,3.465.9a21.783,21.783,0,0,1,3.06.945,6.6,6.6,0,0,1,2.182,1.35,2.819,2.819,0,0,1,.833,2.115,3.1,3.1,0,0,1-.63,2A4.418,4.418,0,0,1,36.99-5.49a7.046,7.046,0,0,1-2.025.608,14.074,14.074,0,0,1-2.025.157,10.74,10.74,0,0,1-2.7-.338A6.721,6.721,0,0,1,27.967-6.1,5.112,5.112,0,0,1,26.415-7.92,5.893,5.893,0,0,1,25.83-10.665Z" transform="translate(44.01 32.895)" fill="url(#linear-gradient)"/>
</svg>
